<?xml version="1.0" standalone="no"?>
<!DOCTYPE svg PUBLIC "-//W3C//DTD SVG 20010904//EN"
 "http://www.w3.org/TR/2001/REC-SVG-20010904/DTD/svg10.dtd">
<svg version="1.0" xmlns="http://www.w3.org/2000/svg"
 width="512.000000pt" height="512.000000pt" viewBox="0 0 512.000000 512.000000"
 preserveAspectRatio="xMidYMid meet">

<g transform="translate(0.000000,512.000000) scale(0.100000,-0.100000)"
fill="#000000" stroke="none">
<path d="M4071 4906 l-184 -184 6 -54 5 -53 -71 -73 -72 -73 0 -59 1 -60 -143
-142 -142 -142 -109 106 c-165 161 -201 163 -342 24 l-85 -84 -95 19 c-204 41
-582 31 -617 -17 -19 -27 -16 -52 10 -69 20 -13 33 -13 83 -3 82 16 362 16
453 -1 l73 -13 -117 -118 -117 -117 -105 -6 c-310 -19 -575 -130 -790 -331
-235 -219 -383 -550 -383 -855 l0 -86 -118 -118 c-64 -64 -120 -117 -124 -117
-16 0 -30 184 -25 344 4 134 11 194 30 276 100 423 373 777 762 987 78 43 94
73 56 107 -27 24 -47 18 -158 -48 -239 -141 -436 -334 -572 -560 -204 -337
-274 -747 -195 -1130 l16 -79 -81 -81 c-136 -137 -133 -174 27 -338 l106 -109
-43 -42 c-40 -40 -43 -41 -53 -22 -37 65 -115 103 -184 90 -52 -9 -120 -77
-130 -129 -6 -35 5 -90 33 -163 3 -7 -6 -17 -18 -22 -13 -5 -53 -39 -88 -74
l-64 -65 -54 5 -54 6 -184 -184 c-195 -194 -208 -213 -161 -244 20 -13 29 -14
47 -5 20 11 45 -11 366 -333 322 -321 344 -346 333 -366 -9 -18 -8 -27 5 -47
30 -46 50 -34 244 160 l184 184 -6 54 -5 53 71 73 72 73 0 59 -1 60 143 142
142 142 109 -106 c165 -161 200 -163 346 -20 l91 90 75 -16 c54 -11 132 -16
280 -16 173 0 220 3 303 21 54 12 105 27 113 34 8 6 14 24 14 40 0 48 -25 53
-142 28 -81 -18 -139 -22 -268 -23 -91 -1 -192 3 -224 7 l-59 9 122 122 123
123 89 6 c413 30 765 249 982 613 88 147 157 383 157 536 l0 73 124 124 125
124 8 -29 c4 -16 8 -119 8 -229 0 -155 -4 -219 -18 -284 -86 -400 -310 -731
-649 -957 -53 -36 -99 -72 -102 -81 -9 -23 21 -63 47 -63 29 0 168 92 274 181
262 220 456 548 527 889 39 189 42 363 9 574 l-15 99 91 91 c147 148 146 181
-17 348 l-106 109 43 42 c40 40 43 41 53 22 22 -38 65 -73 105 -85 62 -19 110
-6 159 44 55 54 64 105 35 190 -21 59 -20 76 2 76 7 0 43 31 81 69 l69 69 54
-5 54 -6 185 184 c127 128 184 191 184 207 0 29 -42 57 -67 43 -10 -5 -90 -82
-178 -170 l-160 -161 -346 346 -347 347 155 151 c85 83 161 163 170 179 13 25
13 31 -2 53 -30 46 -50 33 -244 -160z m417 -993 c-34 -35 -67 -63 -73 -63 -13
0 -565 552 -565 565 0 5 28 38 62 72 l63 63 287 -287 288 -288 -62 -62z m-416
130 l237 -238 36 -99 c19 -55 33 -108 29 -118 -3 -10 -16 -26 -30 -34 -38 -26
-78 -4 -99 54 -25 68 -43 92 -67 92 -15 0 -70 -47 -168 -144 -80 -80 -158
-149 -173 -155 -41 -16 -103 -13 -138 5 l-31 16 136 138 c75 76 136 144 136
152 0 24 -30 58 -52 58 -14 0 -69 -47 -157 -135 l-137 -135 -47 47 -47 47 135
137 c74 74 135 143 135 152 0 19 -34 57 -52 57 -6 0 -73 -61 -148 -135 -75
-74 -139 -135 -143 -135 -3 0 -13 13 -22 30 -20 39 -19 119 1 150 18 27 415
430 424 430 3 0 112 -107 242 -237z m-773 43 l94 -95 -37 -42 c-40 -43 -66
-95 -66 -128 0 -34 -45 -55 -114 -54 -64 0 -103 15 -162 59 -17 13 -37 24 -45
24 -18 0 -719 -701 -719 -719 0 -22 31 -51 54 -51 13 0 128 108 342 321 l322
321 58 -28 c49 -23 73 -28 139 -28 44 -1 92 2 107 6 22 7 29 3 46 -25 30 -50
267 -292 317 -323 39 -25 43 -32 37 -54 -4 -14 -7 -61 -6 -105 0 -66 5 -90 29
-139 l28 -58 -322 -322 c-224 -224 -321 -328 -321 -343 0 -26 25 -53 48 -53
20 0 722 699 722 719 0 8 -11 28 -24 45 -44 59 -59 98 -59 162 -1 69 20 114
54 114 33 0 85 26 128 66 l42 37 95 -94 c53 -52 100 -102 106 -113 9 -16 -54
-83 -482 -511 -527 -528 -520 -520 -458 -555 l28 -15 185 185 c101 101 186
182 189 179 2 -2 -2 -41 -10 -86 -49 -282 -201 -534 -426 -703 -144 -109 -361
-199 -520 -215 l-63 -7 188 189 c103 103 187 195 187 202 0 22 -31 51 -54 51
-14 0 -178 -157 -506 -485 -318 -317 -492 -485 -505 -485 -12 0 -60 40 -119
99 l-99 100 37 41 c40 44 66 96 66 129 0 33 45 55 114 55 63 -1 102 -15 162
-60 17 -13 37 -24 45 -24 18 0 719 701 719 719 0 22 -31 51 -54 51 -13 0 -128
-108 -342 -321 l-322 -321 -58 28 c-49 23 -73 28 -139 28 -44 1 -92 -2 -107
-6 -22 -7 -29 -3 -46 25 -31 51 -267 292 -317 324 -29 18 -43 33 -40 42 3 8 8
40 12 72 6 64 -7 130 -39 197 l-21 44 73 73 c79 80 87 107 38 135 l-28 15
-105 -105 c-58 -57 -105 -111 -105 -119 0 -8 11 -28 24 -45 44 -59 59 -98 59
-161 0 -83 -12 -100 -76 -119 -34 -10 -71 -31 -101 -57 l-48 -42 -94 94 c-53
52 -100 102 -106 113 -9 16 54 83 481 510 301 301 491 499 491 511 0 23 -28
55 -49 55 -9 0 -107 -91 -219 -202 l-204 -203 7 74 c22 244 142 495 320 676
179 180 442 306 675 322 l75 5 -197 -198 c-109 -110 -198 -206 -198 -213 0
-22 31 -51 54 -51 14 0 181 161 512 491 427 427 494 490 510 481 11 -6 61 -53
113 -106z m-1878 -2372 l31 -16 -136 -138 c-75 -76 -136 -144 -136 -152 0 -24
30 -58 52 -58 14 0 69 47 158 135 l136 135 47 -48 47 -47 -135 -135 c-147
-147 -159 -168 -103 -200 l28 -15 138 138 c75 75 140 137 144 137 15 0 38 -61
38 -100 0 -23 -7 -56 -15 -74 -8 -17 -107 -123 -220 -236 l-205 -205 -239 239
-240 239 -36 103 c-30 83 -34 106 -26 123 33 61 99 46 126 -27 47 -126 59
-124 215 34 164 165 189 184 252 184 27 0 63 -7 79 -16z m-429 -721 c153 -153
278 -282 278 -288 0 -5 -28 -38 -62 -72 l-63 -63 -287 287 -288 288 62 62 c34
35 67 63 73 63 5 0 135 -125 287 -277z m-285 -276 c170 -169 233 -239 233
-256 0 -28 -113 -149 -147 -157 -30 -8 -63 20 -63 53 0 12 16 41 37 64 l37 40
-202 202 c-162 162 -202 207 -202 229 0 28 31 58 59 58 9 0 120 -105 248 -233z"/>
<path d="M3134 3345 c-8 -13 -13 -33 -10 -43 8 -25 170 -182 188 -182 7 0 24
7 36 16 41 28 29 57 -65 148 -95 93 -121 103 -149 61z"/>
<path d="M2592 3052 c-64 -23 -124 -69 -137 -107 -8 -23 -6 -30 14 -46 13 -10
26 -19 30 -19 4 0 31 16 60 34 99 64 190 68 284 12 127 -76 159 -238 71 -366
-39 -58 -41 -70 -14 -95 29 -26 66 -11 107 43 46 61 66 138 61 231 -8 132 -78
237 -198 297 -73 37 -198 44 -278 16z"/>
<path d="M1845 2740 c-123 -123 -129 -131 -119 -157 7 -21 17 -29 39 -31 27
-3 44 11 153 121 74 76 122 132 122 144 0 22 -29 53 -51 53 -8 0 -73 -58 -144
-130z"/>
<path d="M2143 2646 c-16 -13 -42 -51 -58 -83 -27 -52 -30 -68 -30 -153 0 -82
4 -103 27 -152 34 -73 103 -142 176 -176 49 -23 70 -27 152 -27 85 0 101 3
153 30 62 31 107 75 107 104 0 10 -9 26 -20 36 -23 21 -27 19 -130 -43 -38
-23 -56 -27 -115 -26 -80 0 -131 22 -181 76 -53 55 -68 95 -68 173 0 71 6 88
65 183 20 30 20 34 5 57 -21 31 -47 32 -83 1z"/>
<path d="M1595 2490 c-27 -29 -10 -74 28 -78 37 -4 57 13 57 49 0 47 -53 65
-85 29z"/>
<path d="M1772 1984 c-12 -8 -22 -25 -22 -37 0 -31 167 -197 197 -197 27 0 57
42 49 68 -8 25 -170 182 -188 182 -7 0 -24 -7 -36 -16z"/>
<path d="M2063 4808 c-5 -7 -18 -38 -27 -68 -25 -77 -51 -109 -112 -136 -29
-13 -57 -31 -62 -41 -15 -29 3 -60 44 -73 61 -20 112 -74 130 -139 34 -118 92
-123 123 -11 21 74 49 110 107 137 61 28 77 44 72 75 -2 17 -18 30 -58 49 -71
34 -86 52 -119 141 -24 67 -29 73 -57 76 -17 2 -35 -3 -41 -10z m74 -227 l31
-36 -34 -38 -35 -38 -34 37 -35 37 33 37 c17 21 34 38 37 38 3 0 19 -16 37
-37z"/>
<path d="M1348 4513 c-9 -10 -21 -36 -28 -58 -26 -83 -51 -114 -116 -145 -94
-45 -93 -78 6 -131 66 -35 92 -68 111 -142 7 -30 20 -54 35 -63 36 -24 59 -4
84 70 28 84 50 112 119 144 50 24 56 30 56 57 0 26 -7 34 -58 60 -70 36 -90
60 -118 143 -26 77 -59 101 -91 65z m69 -232 l31 -36 -34 -38 -34 -37 -34 37
-34 37 32 38 c17 21 33 37 36 37 3 0 19 -17 37 -38z"/>
<path d="M2032 4068 c-20 -20 -14 -66 9 -79 27 -14 65 1 74 31 13 42 -51 80
-83 48z"/>
<path d="M4051 1386 c-6 -7 -18 -35 -26 -62 -24 -79 -49 -112 -111 -142 -97
-46 -98 -76 -3 -124 65 -34 93 -66 109 -127 18 -65 36 -91 65 -91 27 0 49 27
59 75 15 65 55 115 113 143 97 47 97 77 0 124 -58 28 -98 78 -113 143 -15 67
-62 98 -93 61z m73 -233 l28 -32 -32 -39 -33 -39 -34 38 -35 38 34 40 c18 22
35 37 38 33 3 -4 18 -21 34 -39z"/>
<path d="M3085 1166 c-18 -27 -11 -52 17 -67 45 -24 91 24 63 67 -20 31 -59
32 -80 0z"/>
</g>
</svg>
